<?xml version="1.0" encoding="UTF-8" standalone="no"?>
<svg
   width="1589.0834"
   zoomAndPan="magnify"
   viewBox="0 0 1191.8125 1191.8125"
   height="1589.0834"
   preserveAspectRatio="xMidYMid"
   version="1.0"
   id="svg26"
   sodipodi:docname="logo-symbol.svg"
   inkscape:version="1.4.2 (ebf0e940, 2025-05-08)"
   xmlns:inkscape="http://www.inkscape.org/namespaces/inkscape"
   xmlns:sodipodi="http://sodipodi.sourceforge.net/DTD/sodipodi-0.dtd"
   xmlns="http://www.w3.org/2000/svg"
   xmlns:svg="http://www.w3.org/2000/svg">
  <sodipodi:namedview
     id="namedview26"
     pagecolor="#505050"
     bordercolor="#ffffff"
     borderopacity="1"
     inkscape:showpageshadow="0"
     inkscape:pageopacity="0"
     inkscape:pagecheckerboard="1"
     inkscape:deskcolor="#505050"
     inkscape:zoom="0.013"
     inkscape:cx="730.76923"
     inkscape:cy="769.23077"
     inkscape:window-width="1712"
     inkscape:window-height="1045"
     inkscape:window-x="0"
     inkscape:window-y="62"
     inkscape:window-maximized="0"
     inkscape:current-layer="svg26" />
  <defs
     id="defs11">
    <clipPath
       id="59241630ec">
      <path
         d="M 0,0 H 1191.8125 V 1191.8125 H 0 Z m 0,0"
         clip-rule="nonzero"
         id="path1" />
    </clipPath>
    <clipPath
       id="68607a5b7e">
      <path
         d="m 0,75 v 1041.8242 c 0,41.4219 33.578125,75 75,75 h 1041.8242 c 41.4219,0 75,-33.5781 75,-75 V 75 c 0,-41.421875 -33.5781,-75 -75,-75 H 75 C 33.578125,0 0,33.578125 0,75 Z m 0,0"
         clip-rule="nonzero"
         id="path2" />
    </clipPath>
    <clipPath
       id="97c787e468">
      <path
         d="m 180,464.29297 h 839.8437 V 735.69141 H 180 Z m 0,0"
         clip-rule="nonzero"
         id="path3" />
    </clipPath>
    <clipPath
       id="78e8af46a4">
      <path
         d="m 1019.8437,473.29297 v 253.39844 c 0,2.38671 -0.9492,4.67578 -2.6367,6.36328 -1.6875,1.6875 -3.9765,2.63672 -6.3633,2.63672 H 189.13281 c -2.38672,0 -4.67578,-0.94922 -6.36328,-2.63672 -1.6875,-1.6875 -2.63672,-3.97657 -2.63672,-6.36328 V 473.29297 c 0,-2.38672 0.94922,-4.67969 2.63672,-6.36719 1.6875,-1.6875 3.97656,-2.63281 6.36328,-2.63281 h 821.71089 c 2.3868,0 4.6758,0.94531 6.3633,2.63281 1.6875,1.6875 2.6367,3.98047 2.6367,6.36719 z m 0,0"
         clip-rule="nonzero"
         id="path4" />
    </clipPath>
    <clipPath
       id="cb08da6b80">
      <path
         d="M 0,0.292969 H 839.84375 V 271.69141 H 0 Z m 0,0"
         clip-rule="nonzero"
         id="path5" />
    </clipPath>
    <clipPath
       id="7f4ba4bf9d">
      <path
         d="M 839.84375,9.292969 V 262.69141 c 0,2.38671 -0.94922,4.67578 -2.63672,6.36328 -1.6875,1.6875 -3.97656,2.63672 -6.36328,2.63672 H 9.132812 c -2.386718,0 -4.675781,-0.94922 -6.363281,-2.63672 -1.6875,-1.6875 -2.636719,-3.97657 -2.636719,-6.36328 V 9.292969 c 0,-2.386719 0.949219,-4.679688 2.636719,-6.367188 1.6875,-1.6875 3.976563,-2.632812 6.363281,-2.632812 H 830.84375 c 2.38672,0 4.67578,0.945312 6.36328,2.632812 1.6875,1.6875 2.63672,3.980469 2.63672,6.367188 z m 0,0"
         clip-rule="nonzero"
         id="path6" />
    </clipPath>
    <clipPath
       id="59fed9efb5">
      <rect
         x="0"
         width="840"
         y="0"
         height="272"
         id="rect6" />
    </clipPath>
    <clipPath
       id="b524ef7af4">
      <path
         d="M 464.30078,180.14453 H 735.69922 V 1020 H 464.30078 Z m 0,0"
         clip-rule="nonzero"
         id="path7" />
    </clipPath>
    <clipPath
       id="1af7f3e660">
      <path
         d="m 473.30078,180.14453 h 253.39844 c 2.38672,0 4.67578,0.94922 6.36328,2.63672 1.6875,1.6875 2.63672,3.97656 2.63672,6.36328 v 821.71097 c 0,2.3867 -0.94922,4.6757 -2.63672,6.3632 -1.6875,1.6875 -3.97656,2.6368 -6.36328,2.6368 H 473.30078 c -2.38672,0 -4.67578,-0.9493 -6.36328,-2.6368 -1.6875,-1.6875 -2.63672,-3.9765 -2.63672,-6.3632 V 189.14453 c 0,-2.38672 0.94922,-4.67578 2.63672,-6.36328 1.6875,-1.6875 3.97656,-2.63672 6.36328,-2.63672 z m 0,0"
         clip-rule="nonzero"
         id="path8" />
    </clipPath>
    <clipPath
       id="d598bd8191">
      <path
         d="M 0.300781,0.144531 H 271.69922 V 840 H 0.300781 Z m 0,0"
         clip-rule="nonzero"
         id="path9" />
    </clipPath>
    <clipPath
       id="c7acb882d4">
      <path
         d="M 9.300781,0.144531 H 262.69922 c 2.38672,0 4.67578,0.949219 6.36328,2.636719 1.6875,1.6875 2.63672,3.976562 2.63672,6.363281 V 830.85547 c 0,2.38672 -0.94922,4.67578 -2.63672,6.36328 -1.6875,1.6875 -3.97656,2.63672 -6.36328,2.63672 H 9.300781 c -2.386719,0 -4.675781,-0.94922 -6.363281,-2.63672 -1.6875,-1.6875 -2.636719,-3.97656 -2.636719,-6.36328 V 9.144531 C 0.300781,6.757812 1.25,4.46875 2.9375,2.78125 4.625,1.09375 6.914062,0.144531 9.300781,0.144531 Z m 0,0"
         clip-rule="nonzero"
         id="path10" />
    </clipPath>
    <clipPath
       id="3674babc7a">
      <rect
         x="0"
         width="272"
         y="0"
         height="840"
         id="rect10" />
    </clipPath>
    <clipPath
       id="8e578a7837">
      <rect
         x="0"
         width="1192"
         y="0"
         height="1192"
         id="rect11" />
    </clipPath>
  </defs>
  <g
     id="g26">
    <g
       clip-path="url(#8e578a7837)"
       id="g25">
      <g
         clip-path="url(#59241630ec)"
         id="g12">
        <g
           clip-path="url(#68607a5b7e)"
           id="g11">
          <path
             fill="#2563eb"
             d="M 1128.5313,0 H 63.28125 C 28.214844,0 0,28.214844 0,63.28125 V 1128.5313 c 0,35.0664 28.214844,63.2812 63.28125,63.2812 H 1128.5313 c 35.0664,0 63.2812,-28.2148 63.2812,-63.2812 V 63.28125 C 1191.8125,28.214844 1163.5977,0 1128.5313,0 Z m 0,0"
             fill-opacity="1"
             fill-rule="nonzero"
             id="path11" />
        </g>
      </g>
      <g
         clip-path="url(#97c787e468)"
         id="g18">
        <g
           clip-path="url(#78e8af46a4)"
           id="g17">
          <g
             transform="translate(180,464)"
             id="g16">
            <g
               clip-path="url(#59fed9efb5)"
               id="g15">
              <g
                 clip-path="url(#cb08da6b80)"
                 id="g14">
                <g
                   clip-path="url(#7f4ba4bf9d)"
                   id="g13">
                  <path
                     fill="#ffffff"
                     d="M 839.84375,0.292969 V 271.69141 H 0.199219 V 0.292969 Z m 0,0"
                     fill-opacity="1"
                     fill-rule="nonzero"
                     id="path12" />
                </g>
              </g>
            </g>
          </g>
        </g>
      </g>
      <g
         clip-path="url(#b524ef7af4)"
         id="g24">
        <g
           clip-path="url(#1af7f3e660)"
           id="g23">
          <g
             transform="translate(464,180)"
             id="g22">
            <g
               clip-path="url(#3674babc7a)"
               id="g21">
              <g
                 clip-path="url(#d598bd8191)"
                 id="g20">
                <g
                   clip-path="url(#c7acb882d4)"
                   id="g19">
                  <path
                     fill="#ffffff"
                     d="M 0.300781,0.144531 H 271.69922 V 839.78906 H 0.300781 Z m 0,0"
                     fill-opacity="1"
                     fill-rule="nonzero"
                     id="path18" />
                </g>
              </g>
            </g>
          </g>
        </g>
      </g>
    </g>
  </g>
</svg>
